<svg width="13" height="15" viewBox="0 0 13 15" fill="none" xmlns="http://www.w3.org/2000/svg">
<g id="_&#229;&#177;&#130;_1" clip-path="url(#clip0_4797_107)">
<path id="Vector" d="M10.1793 9.72038C12.1933 7.80113 12.2081 4.67437 10.2121 2.73787C10.2012 2.72738 10.1903 2.71688 10.1793 2.70638C8.14826 0.764625 4.85127 0.764625 2.82019 2.70638C0.806269 4.62563 0.791449 7.75237 2.78743 9.68887C2.79835 9.69937 2.80927 9.70988 2.82019 9.72038L6.49937 13.2379L10.1793 9.72038ZM1.90371 10.6076C-0.619543 8.20087 -0.636703 4.28287 1.86549 1.85662C1.87797 1.84387 1.89123 1.83187 1.90449 1.81912C4.44256 -0.606375 8.55853 -0.606375 11.0958 1.81912C13.6191 4.22512 13.637 8.14312 11.1348 10.5694C11.1223 10.5821 11.1091 10.5941 11.0958 10.6069L6.50015 14.9996L1.90371 10.6061V10.6076ZM6.49937 7.50112C7.21696 7.50112 7.79961 6.94162 7.79961 6.25087C7.79961 5.56012 7.21774 5.00062 6.49937 5.00062C5.78101 5.00062 5.19914 5.56012 5.19914 6.25087C5.19914 6.94162 5.78101 7.50112 6.49937 7.50112ZM6.49937 8.75137C5.06342 8.75137 3.89891 7.63237 3.89891 6.25162C3.89891 4.87087 5.06264 3.75112 6.49859 3.75112C7.93455 3.75112 9.09828 4.87087 9.09828 6.25162C9.09828 7.63237 7.93455 8.75137 6.49859 8.75137H6.49937Z" fill="black"/>
</g>
<defs>
<clipPath id="clip0_4797_107">
<rect width="13" height="15" fill="white"/>
</clipPath>
</defs>
</svg>
