<svg width="30" height="30" viewBox="0 0 30 30" fill="none" xmlns="http://www.w3.org/2000/svg">
<path d="M22.2909 5.70911H7.71181C6.90705 5.70911 6.25391 6.39528 6.25391 7.24074V22.5931C6.25391 23.4386 6.90705 24.1248 7.71181 24.1248H22.2909C23.0956 24.1248 23.7488 23.4386 23.7488 22.5931V7.24074C23.7488 6.39528 23.0956 5.70911 22.2909 5.70911ZM11.4331 20.8945H8.8446V12.7355H11.4338V20.8945H11.4331ZM10.1385 11.7468C9.32717 11.7468 8.66893 11.0553 8.66893 10.2029C8.66893 9.34981 9.32717 8.65828 10.1385 8.65828C10.9505 8.65828 11.6088 9.34981 11.6088 10.2029C11.6088 11.0553 10.9505 11.7468 10.1385 11.7468ZM21.1668 20.8945H18.5696L18.5091 16.0477C18.5091 16.0477 18.5696 14.755 17.2334 14.771C15.8972 14.7871 15.7048 16.0477 15.7048 16.0477V20.8945H13.0893V14.4356V13.9248V12.7355H15.5969V13.8612C15.5969 13.8612 15.6997 13.4944 16.277 13.0633C16.8536 12.6321 17.8107 12.5364 18.2211 12.5525C18.6315 12.5685 19.1928 12.4935 20.1346 13.1751C21.1413 13.9026 21.1668 15.8072 21.1668 15.8072V20.8945Z" fill="#AEAEAE"/>
</svg>
