<svg width="14" height="15" viewBox="0 0 14 15" fill="none" xmlns="http://www.w3.org/2000/svg">
<g id="_&#229;&#177;&#130;_1" clip-path="url(#clip0_4797_109)">
<path id="Vector" d="M6.65696 13.674C10.3336 13.674 13.3147 10.6141 13.3155 6.83743C13.3155 3.06157 10.3352 0 6.65854 0H6.65696C2.97954 0 0 3.06157 0 6.83823C0 10.6133 2.98033 13.674 6.65696 13.6749V13.674ZM6.65696 12.4313C3.64831 12.4313 1.20928 9.92809 1.20928 6.83823C1.20928 3.74838 3.64673 1.24354 6.65539 1.24354H6.65696C9.66562 1.24354 12.1039 3.74919 12.1031 6.83823C12.1031 9.92728 9.66483 12.4305 6.65696 12.4313Z" fill="black"/>
<path id="Vector_2" d="M10.3919 11.2951C10.6279 11.0527 11.0111 11.0527 11.2479 11.2951L13.8152 13.9316C14.0559 14.17 14.0622 14.5635 13.8301 14.8108C13.598 15.058 13.2148 15.0645 12.9741 14.8261C12.9694 14.8213 12.9639 14.8156 12.9591 14.8108L10.3919 12.1742C10.1558 11.9318 10.1558 11.5383 10.3919 11.2951ZM11.2479 12.1742C11.4839 11.9318 11.4839 11.5383 11.2479 11.2951L13.8152 13.9316C13.5831 13.6844 13.1999 13.6779 12.9591 13.9163C12.7184 14.1547 12.7121 14.5482 12.9442 14.7954C12.9489 14.8003 12.9544 14.8059 12.9591 14.8108L10.3919 12.1742C10.6279 12.4166 11.0111 12.4166 11.2479 12.1742Z" fill="black"/>
</g>
<defs>
<clipPath id="clip0_4797_109">
<rect width="14" height="15" fill="white"/>
</clipPath>
</defs>
</svg>
