<svg width="30" height="30" viewBox="0 0 30 30" fill="none" xmlns="http://www.w3.org/2000/svg">
<g id="Frame 2">
<path id="Vector" d="M14.9995 4.52344C12.1564 4.52344 11.802 4.53628 10.6857 4.58726C9.81812 4.60443 8.95987 4.76964 8.14793 5.07574C7.45036 5.34233 6.81686 5.75307 6.28881 6.28112C5.76076 6.80917 5.35002 7.44267 5.08342 8.14024C4.77662 8.95172 4.61144 9.80986 4.59507 10.6772C4.54496 11.7944 4.53125 12.1489 4.53125 14.9911C4.53125 17.8341 4.54496 18.195 4.59507 19.3113C4.61262 20.1789 4.77777 21.037 5.08342 21.8491C5.3527 22.5451 5.76438 23.1772 6.29209 23.7049C6.8198 24.2327 7.4519 24.6443 8.14793 24.9136C8.96027 25.2175 9.8185 25.3805 10.6857 25.3957C11.802 25.4467 12.1574 25.4595 14.9995 25.4595C17.8418 25.4595 18.2035 25.4467 19.3197 25.3957C20.1869 25.3797 21.0451 25.2163 21.8575 24.9127C22.5518 24.6409 23.1824 24.2284 23.7096 23.7012C24.2369 23.174 24.6493 22.5434 24.9212 21.8491C25.2246 21.0366 25.3879 20.1785 25.404 19.3113C25.454 18.195 25.4679 17.8334 25.4679 14.9921C25.4679 12.1489 25.4541 11.7936 25.404 10.6774C25.3892 9.81033 25.2259 8.95224 24.9212 8.14036C24.652 7.44442 24.2405 6.81236 23.7129 6.28466C23.1853 5.75695 22.5534 5.34523 21.8575 5.07586C21.0452 4.77001 20.1866 4.60482 19.3188 4.58738C18.2025 4.5364 17.8408 4.52356 14.9985 4.52356H14.9995V4.52344ZM14.9995 6.41417C17.797 6.41417 18.1269 6.42052 19.2304 6.47075C19.8933 6.47938 20.5498 6.60173 21.1712 6.83247C21.624 7.00565 22.0353 7.27197 22.3786 7.61418C22.7219 7.95639 22.9896 8.36687 23.1642 8.81905C23.3916 9.44317 23.5118 10.1013 23.5197 10.7655C23.5697 11.8698 23.5835 12.1998 23.5835 14.9909C23.5835 17.7831 23.5698 18.1183 23.5197 19.2229C23.5121 19.8853 23.3919 20.5416 23.1642 21.1637C22.9952 21.6191 22.7265 22.0311 22.3778 22.3694C22.0408 22.7196 21.6285 22.9886 21.1721 23.1559C20.5499 23.3834 19.8936 23.5036 19.2312 23.5112C18.1268 23.5622 17.7969 23.5751 14.9994 23.5751C12.2019 23.5751 11.8783 23.5622 10.7739 23.5112C10.1094 23.5034 9.45104 23.3833 8.82661 23.1559C8.37225 22.9884 7.9621 22.7194 7.62741 22.3694C7.27862 22.0312 7.00989 21.6192 6.84091 21.1637C6.61341 20.5413 6.49116 19.8854 6.47919 19.2229C6.42821 18.1184 6.42185 17.7886 6.42185 14.9909C6.42185 12.1934 6.42821 11.8698 6.47919 10.7655C6.49098 10.1008 6.61322 9.44275 6.84091 8.81818C7.01559 8.36733 7.2824 7.95788 7.62429 7.61598C7.96619 7.27409 8.37564 7.00728 8.82649 6.8326C9.45025 6.60199 10.1088 6.47965 10.7738 6.47088C11.8784 6.42065 12.2083 6.41417 14.9995 6.41417ZM14.9995 9.61727C12.0302 9.61927 9.62471 12.028 9.6267 14.9973C9.62882 17.9666 12.0374 20.3721 15.0067 20.3701C17.9756 20.368 20.3809 17.9597 20.3794 14.9908C20.3804 12.024 17.9761 9.61814 15.0093 9.61715H14.9984H14.9995V9.61727ZM14.9995 18.4801C13.0725 18.4801 11.5103 16.9179 11.5103 14.9908C11.5103 13.0638 13.0725 11.5016 14.9995 11.5016C16.9265 11.5016 18.4887 13.0638 18.4887 14.9908C18.4887 16.9179 16.9265 18.4801 14.9995 18.4801ZM21.8447 9.40862C21.8447 10.1024 21.2823 10.6648 20.5887 10.6648C19.895 10.6648 19.3326 10.1024 19.3326 9.40862C19.3326 8.71485 19.895 8.15245 20.5887 8.15245C21.2823 8.15245 21.8447 8.71485 21.8447 9.40862Z" fill="#AEAEAE"/>
</g>
</svg>
