<svg width="90" height="27" viewBox="0 0 90 27" fill="none" xmlns="http://www.w3.org/2000/svg">
<path d="M13.0668 21.4337H6.20271V1.60607C6.20271 1.27132 5.93236 1 5.5953 1H2.6039C2.27035 1 2 1.27132 2 1.60607V25.0525C2 25.3873 2.27035 25.6586 2.6039 25.6586H13.0668C13.4003 25.6586 13.6707 25.3873 13.6707 25.0525V22.0398C13.6707 21.7051 13.4003 21.4337 13.0668 21.4337Z" fill="black"/>
<path d="M64.2614 22.343C61.4034 22.343 59.0756 19.8834 59.0756 16.8566C59.0756 13.8298 61.3999 11.3703 64.2614 11.3703C67.1229 11.3703 69.4472 13.8298 69.4472 16.8566C69.4472 19.8834 67.1194 22.343 64.2614 22.343ZM72.8353 8.1602H70.1424C69.8088 8.1602 69.5385 8.43152 69.5385 8.76627V9.53795C67.9866 8.40333 66.1608 7.80078 64.2298 7.80078C59.2371 7.80078 55.1748 11.8777 55.1748 16.8883C55.1748 21.899 59.2336 25.9759 64.2298 25.9759C66.1573 25.9759 67.9831 25.3733 69.5385 24.2387V25.0597C69.5385 25.3944 69.8088 25.6658 70.1424 25.6658H72.8353C73.1689 25.6658 73.4392 25.3944 73.4392 25.0597V8.76274C73.4392 8.42799 73.1689 8.15667 72.8353 8.15667" fill="black"/>
<path d="M19.3098 14.8201C20.0788 12.8081 21.9431 11.3881 24.1164 11.3881C26.2898 11.3881 28.1506 12.8081 28.9195 14.8201H19.3098ZM24.0813 7.79747C19.0816 7.79747 15.0264 11.8638 15.0264 16.885C15.0264 21.9062 19.0816 25.9725 24.0813 25.9725C26.8621 25.9725 29.3479 24.7075 31.0086 22.7272C31.0683 22.6391 31.1069 22.5334 31.1069 22.4207C31.1069 22.2022 30.977 22.0155 30.7874 21.9274L28.1541 20.8139C28.0944 20.7927 28.0313 20.7751 27.9645 20.7751C27.8241 20.7751 27.7012 20.8315 27.6064 20.9161C26.6865 21.8076 25.4612 22.3573 24.1164 22.3573C21.6622 22.3573 19.6048 20.5461 19.0676 18.1218H33.052C33.1082 17.7166 33.1398 17.3008 33.1398 16.8815C33.1398 11.8638 29.0846 7.79395 24.0848 7.79395" fill="black"/>
<path d="M85.1554 7.79395C84.1864 7.79395 82.5537 7.8468 81.2406 9.16465V8.74886C81.2406 8.41411 80.9703 8.14279 80.6367 8.14279H77.9437C77.6102 8.14279 77.3398 8.41411 77.3398 8.74886V25.067C77.3398 25.3947 77.6067 25.666 77.9367 25.6695H80.6402C80.9703 25.666 81.2371 25.3947 81.2371 25.0634V16.4904C81.2371 14.8977 81.374 13.7243 81.9042 12.8715C82.5081 11.899 83.5684 11.3599 84.4988 11.3599C84.8254 11.3599 85.3485 11.4057 85.7593 11.5854C86.2719 11.8144 86.6055 12.2161 86.6055 12.2161L88.9965 9.49588C88.6243 9.10123 88.038 8.69248 87.7325 8.5163C86.8583 8.00889 86.0577 7.79395 85.1519 7.79395" fill="black"/>
<path d="M55.01 25.1197L40.4392 8.52323C40.1548 8.19553 39.5615 7.92773 39.1296 7.92773H33.5962C33.1608 7.92773 33.038 8.19553 33.3294 8.52323L47.9002 25.1162C48.1881 25.4439 48.7779 25.7117 49.2133 25.7117H54.7432C55.1786 25.7117 55.3014 25.4439 55.01 25.1162V25.1197ZM44.2031 18.8123C43.1181 18.8123 42.2369 17.9279 42.2369 16.8391C42.2369 15.7503 43.1181 14.8658 44.2031 14.8658C45.288 14.8658 46.1692 15.7503 46.1692 16.8391C46.1692 17.9279 45.288 18.8123 44.2031 18.8123Z" fill="black"/>
<path d="M37.5735 23.083C36.8784 23.083 36.3096 23.6503 36.3096 24.3515C36.3096 25.0527 36.8784 25.62 37.5735 25.62C38.2687 25.62 38.8375 25.0492 38.8375 24.3515C38.8375 23.6538 38.2722 23.083 37.5735 23.083Z" fill="#DA291C"/>
<path d="M40.4246 19.4707C39.5293 19.4707 38.8096 20.1966 38.8096 21.0916C38.8096 21.9866 39.5293 22.7125 40.4246 22.7125C41.32 22.7125 42.0397 21.9866 42.0397 21.0916C42.0397 20.1966 41.32 19.4707 40.4246 19.4707Z" fill="#DA291C"/>
<path d="M48.4511 14.3833C49.7291 14.3833 50.7719 13.3403 50.7719 12.0541C50.7719 10.768 49.7326 9.72852 48.4511 9.72852C47.1695 9.72852 46.1338 10.768 46.1338 12.0541C46.1338 13.3403 47.1695 14.3833 48.4511 14.3833Z" fill="#DA291C"/>
<path d="M52.6641 9.95363C54.1387 9.95363 55.3325 8.75558 55.3325 7.27564C55.3325 5.7957 54.1387 4.59766 52.6641 4.59766C51.1895 4.59766 49.9922 5.7957 49.9922 7.27564C49.9922 8.75558 51.1895 9.95363 52.6641 9.95363Z" fill="#DA291C"/>
</svg>
